<svg width="844" height="70" viewBox="0 0 844 70" fill="none" xmlns="http://www.w3.org/2000/svg">
<path d="M52 21L812 21.0001" stroke="#F2F2F2" stroke-width="8" stroke-linecap="round" stroke-linejoin="round"/>
<path d="M52 21L432 21" stroke="#00B307" stroke-width="8" stroke-linecap="round" stroke-linejoin="round"/>
<path d="M5.57622 64.098C4.67089 64.098 3.84489 63.888 3.09822 63.468C2.35155 63.0387 1.75889 62.446 1.32022 61.69C0.890885 60.9247 0.676219 60.066 0.676219 59.114C0.676219 58.162 0.890885 57.308 1.32022 56.552C1.75889 55.7867 2.35155 55.194 3.09822 54.774C3.84489 54.3447 4.67089 54.13 5.57622 54.13C6.49089 54.13 7.32155 54.3447 8.06822 54.774C8.81489 55.194 9.40289 55.782 9.83222 56.538C10.2616 57.294 10.4762 58.1527 10.4762 59.114C10.4762 60.0753 10.2616 60.934 9.83222 61.69C9.40289 62.446 8.81489 63.0387 8.06822 63.468C7.32155 63.888 6.49089 64.098 5.57622 64.098ZM5.57622 62.992C6.25755 62.992 6.86889 62.8333 7.41022 62.516C7.96089 62.1987 8.39022 61.746 8.69822 61.158C9.01555 60.57 9.17422 59.8887 9.17422 59.114C9.17422 58.33 9.01555 57.6487 8.69822 57.07C8.39022 56.482 7.96555 56.0293 7.42422 55.712C6.88289 55.3947 6.26689 55.236 5.57622 55.236C4.88555 55.236 4.26955 55.3947 3.72822 55.712C3.18689 56.0293 2.75755 56.482 2.44022 57.07C2.13222 57.6487 1.97822 58.33 1.97822 59.114C1.97822 59.8887 2.13222 60.57 2.44022 61.158C2.75755 61.746 3.18689 62.1987 3.72822 62.516C4.27889 62.8333 4.89489 62.992 5.57622 62.992ZM13.4321 57.574C13.6561 57.1353 13.9734 56.7947 14.3841 56.552C14.8041 56.3093 15.3127 56.188 15.9101 56.188V57.504H15.5741C14.1461 57.504 13.4321 58.2787 13.4321 59.828V64H12.1581V56.328H13.4321V57.574ZM16.9047 60.136C16.9047 59.352 17.0634 58.666 17.3807 58.078C17.6981 57.4807 18.1321 57.0187 18.6827 56.692C19.2427 56.3653 19.8681 56.202 20.5587 56.202C21.1561 56.202 21.7114 56.342 22.2247 56.622C22.7381 56.8927 23.1301 57.252 23.4007 57.7V53.64H24.6887V64H23.4007V62.558C23.1487 63.0153 22.7754 63.3933 22.2807 63.692C21.7861 63.9813 21.2074 64.126 20.5447 64.126C19.8634 64.126 19.2427 63.958 18.6827 63.622C18.1321 63.286 17.6981 62.8147 17.3807 62.208C17.0634 61.6013 16.9047 60.9107 16.9047 60.136ZM23.4007 60.15C23.4007 59.5713 23.2841 59.0673 23.0507 58.638C22.8174 58.2087 22.5001 57.882 22.0987 57.658C21.7067 57.4247 21.2727 57.308 20.7967 57.308C20.3207 57.308 19.8867 57.42 19.4947 57.644C19.1027 57.868 18.7901 58.1947 18.5567 58.624C18.3234 59.0533 18.2067 59.5573 18.2067 60.136C18.2067 60.724 18.3234 61.2373 18.5567 61.676C18.7901 62.1053 19.1027 62.4367 19.4947 62.67C19.8867 62.894 20.3207 63.006 20.7967 63.006C21.2727 63.006 21.7067 62.894 22.0987 62.67C22.5001 62.4367 22.8174 62.1053 23.0507 61.676C23.2841 61.2373 23.4007 60.7287 23.4007 60.15ZM33.8417 59.87C33.8417 60.1127 33.8277 60.3693 33.7997 60.64H27.6677C27.7143 61.396 27.971 61.9887 28.4377 62.418C28.9137 62.838 29.4877 63.048 30.1597 63.048C30.7103 63.048 31.1677 62.922 31.5317 62.67C31.905 62.4087 32.1663 62.0633 32.3157 61.634H33.6877C33.4823 62.3713 33.0717 62.9733 32.4557 63.44C31.8397 63.8973 31.0743 64.126 30.1597 64.126C29.4317 64.126 28.7783 63.9627 28.1997 63.636C27.6303 63.3093 27.1823 62.8473 26.8557 62.25C26.529 61.6433 26.3657 60.9433 26.3657 60.15C26.3657 59.3567 26.5243 58.6613 26.8417 58.064C27.159 57.4667 27.6023 57.0093 28.1717 56.692C28.7503 56.3653 29.413 56.202 30.1597 56.202C30.8877 56.202 31.5317 56.3607 32.0917 56.678C32.6517 56.9953 33.081 57.434 33.3797 57.994C33.6877 58.5447 33.8417 59.17 33.8417 59.87ZM32.5257 59.604C32.5257 59.1187 32.4183 58.7033 32.2037 58.358C31.989 58.0033 31.695 57.7373 31.3217 57.56C30.9577 57.3733 30.5517 57.28 30.1037 57.28C29.4597 57.28 28.909 57.4853 28.4517 57.896C28.0037 58.3067 27.747 58.876 27.6817 59.604H32.5257ZM36.7973 57.574C37.0213 57.1353 37.3386 56.7947 37.7493 56.552C38.1693 56.3093 38.678 56.188 39.2753 56.188V57.504H38.9393C37.5113 57.504 36.7973 58.2787 36.7973 59.828V64H35.5233V56.328H36.7973V57.574ZM45.7524 57.574C45.9764 57.1353 46.2937 56.7947 46.7044 56.552C47.1244 56.3093 47.6331 56.188 48.2304 56.188V57.504H47.8944C46.4664 57.504 45.7524 58.2787 45.7524 59.828V64H44.4784V56.328H45.7524V57.574ZM56.701 59.87C56.701 60.1127 56.687 60.3693 56.659 60.64H50.527C50.5737 61.396 50.8304 61.9887 51.297 62.418C51.773 62.838 52.347 63.048 53.019 63.048C53.5697 63.048 54.027 62.922 54.391 62.67C54.7644 62.4087 55.0257 62.0633 55.175 61.634H56.547C56.3417 62.3713 55.931 62.9733 55.315 63.44C54.699 63.8973 53.9337 64.126 53.019 64.126C52.291 64.126 51.6377 63.9627 51.059 63.636C50.4897 63.3093 50.0417 62.8473 49.715 62.25C49.3884 61.6433 49.225 60.9433 49.225 60.15C49.225 59.3567 49.3837 58.6613 49.701 58.064C50.0184 57.4667 50.4617 57.0093 51.031 56.692C51.6097 56.3653 52.2724 56.202 53.019 56.202C53.747 56.202 54.391 56.3607 54.951 56.678C55.511 56.9953 55.9404 57.434 56.239 57.994C56.547 58.5447 56.701 59.17 56.701 59.87ZM55.385 59.604C55.385 59.1187 55.2777 58.7033 55.063 58.358C54.8484 58.0033 54.5544 57.7373 54.181 57.56C53.817 57.3733 53.411 57.28 52.963 57.28C52.319 57.28 51.7684 57.4853 51.311 57.896C50.863 58.3067 50.6064 58.876 50.541 59.604H55.385ZM57.9067 60.15C57.9067 59.3567 58.0654 58.666 58.3827 58.078C58.7 57.4807 59.1387 57.0187 59.6987 56.692C60.268 56.3653 60.9167 56.202 61.6447 56.202C62.5874 56.202 63.362 56.4307 63.9687 56.888C64.5847 57.3453 64.9907 57.98 65.1867 58.792H63.8147C63.684 58.3253 63.4274 57.9567 63.0447 57.686C62.6714 57.4153 62.2047 57.28 61.6447 57.28C60.9167 57.28 60.3287 57.532 59.8807 58.036C59.4327 58.5307 59.2087 59.2353 59.2087 60.15C59.2087 61.074 59.4327 61.788 59.8807 62.292C60.3287 62.796 60.9167 63.048 61.6447 63.048C62.2047 63.048 62.6714 62.9173 63.0447 62.656C63.418 62.3947 63.6747 62.0213 63.8147 61.536H65.1867C64.9814 62.32 64.5707 62.95 63.9547 63.426C63.3387 63.8927 62.5687 64.126 61.6447 64.126C60.9167 64.126 60.268 63.9627 59.6987 63.636C59.1387 63.3093 58.7 62.8473 58.3827 62.25C58.0654 61.6527 57.9067 60.9527 57.9067 60.15ZM73.8866 59.87C73.8866 60.1127 73.8726 60.3693 73.8446 60.64H67.7126C67.7593 61.396 68.0159 61.9887 68.4826 62.418C68.9586 62.838 69.5326 63.048 70.2046 63.048C70.7553 63.048 71.2126 62.922 71.5766 62.67C71.9499 62.4087 72.2113 62.0633 72.3606 61.634H73.7326C73.5273 62.3713 73.1166 62.9733 72.5006 63.44C71.8846 63.8973 71.1193 64.126 70.2046 64.126C69.4766 64.126 68.8233 63.9627 68.2446 63.636C67.6753 63.3093 67.2273 62.8473 66.9006 62.25C66.5739 61.6433 66.4106 60.9433 66.4106 60.15C66.4106 59.3567 66.5693 58.6613 66.8866 58.064C67.2039 57.4667 67.6473 57.0093 68.2166 56.692C68.7953 56.3653 69.4579 56.202 70.2046 56.202C70.9326 56.202 71.5766 56.3607 72.1366 56.678C72.6966 56.9953 73.1259 57.434 73.4246 57.994C73.7326 58.5447 73.8866 59.17 73.8866 59.87ZM72.5706 59.604C72.5706 59.1187 72.4633 58.7033 72.2486 58.358C72.0339 58.0033 71.7399 57.7373 71.3666 57.56C71.0026 57.3733 70.5966 57.28 70.1486 57.28C69.5046 57.28 68.9539 57.4853 68.4966 57.896C68.0486 58.3067 67.7919 58.876 67.7266 59.604H72.5706ZM76.2262 55.082C75.9836 55.082 75.7782 54.998 75.6102 54.83C75.4422 54.662 75.3582 54.4567 75.3582 54.214C75.3582 53.9713 75.4422 53.766 75.6102 53.598C75.7782 53.43 75.9836 53.346 76.2262 53.346C76.4596 53.346 76.6556 53.43 76.8142 53.598C76.9822 53.766 77.0662 53.9713 77.0662 54.214C77.0662 54.4567 76.9822 54.662 76.8142 54.83C76.6556 54.998 76.4596 55.082 76.2262 55.082ZM76.8422 56.328V64H75.5682V56.328H76.8422ZM81.8695 62.824L84.2495 56.328H85.6075L82.5975 64H81.1135L78.1035 56.328H79.4755L81.8695 62.824ZM93.8612 59.87C93.8612 60.1127 93.8472 60.3693 93.8192 60.64H87.6872C87.7339 61.396 87.9905 61.9887 88.4572 62.418C88.9332 62.838 89.5072 63.048 90.1792 63.048C90.7299 63.048 91.1872 62.922 91.5512 62.67C91.9245 62.4087 92.1859 62.0633 92.3352 61.634H93.7072C93.5019 62.3713 93.0912 62.9733 92.4752 63.44C91.8592 63.8973 91.0939 64.126 90.1792 64.126C89.4512 64.126 88.7979 63.9627 88.2192 63.636C87.6499 63.3093 87.2019 62.8473 86.8752 62.25C86.5485 61.6433 86.3852 60.9433 86.3852 60.15C86.3852 59.3567 86.5439 58.6613 86.8612 58.064C87.1785 57.4667 87.6219 57.0093 88.1912 56.692C88.7699 56.3653 89.4325 56.202 90.1792 56.202C90.9072 56.202 91.5512 56.3607 92.1112 56.678C92.6712 56.9953 93.1005 57.434 93.3992 57.994C93.7072 58.5447 93.8612 59.17 93.8612 59.87ZM92.5452 59.604C92.5452 59.1187 92.4379 58.7033 92.2232 58.358C92.0085 58.0033 91.7145 57.7373 91.3412 57.56C90.9772 57.3733 90.5712 57.28 90.1232 57.28C89.4792 57.28 88.9285 57.4853 88.4712 57.896C88.0232 58.3067 87.7665 58.876 87.7012 59.604H92.5452ZM95.0668 60.136C95.0668 59.352 95.2255 58.666 95.5428 58.078C95.8602 57.4807 96.2942 57.0187 96.8448 56.692C97.4048 56.3653 98.0302 56.202 98.7208 56.202C99.3182 56.202 99.8735 56.342 100.387 56.622C100.9 56.8927 101.292 57.252 101.563 57.7V53.64H102.851V64H101.563V62.558C101.311 63.0153 100.938 63.3933 100.443 63.692C99.9482 63.9813 99.3695 64.126 98.7068 64.126C98.0255 64.126 97.4048 63.958 96.8448 63.622C96.2942 63.286 95.8602 62.8147 95.5428 62.208C95.2255 61.6013 95.0668 60.9107 95.0668 60.136ZM101.563 60.15C101.563 59.5713 101.446 59.0673 101.213 58.638C100.98 58.2087 100.662 57.882 100.261 57.658C99.8688 57.4247 99.4348 57.308 98.9588 57.308C98.4828 57.308 98.0488 57.42 97.6568 57.644C97.2648 57.868 96.9522 58.1947 96.7188 58.624C96.4855 59.0533 96.3688 59.5573 96.3688 60.136C96.3688 60.724 96.4855 61.2373 96.7188 61.676C96.9522 62.1053 97.2648 62.4367 97.6568 62.67C98.0488 62.894 98.4828 63.006 98.9588 63.006C99.4348 63.006 99.8688 62.894 100.261 62.67C100.662 62.4367 100.98 62.1053 101.213 61.676C101.446 61.2373 101.563 60.7287 101.563 60.15Z" fill="#2C742F"/>
<path d="M275.909 57.168C275.909 57.6627 275.792 58.1293 275.559 58.568C275.325 59.0067 274.952 59.366 274.439 59.646C273.925 59.9167 273.267 60.052 272.465 60.052H270.701V64H269.105V54.27H272.465C273.211 54.27 273.841 54.4007 274.355 54.662C274.877 54.914 275.265 55.2593 275.517 55.698C275.778 56.1367 275.909 56.6267 275.909 57.168ZM272.465 58.75C273.071 58.75 273.524 58.6147 273.823 58.344C274.121 58.064 274.271 57.672 274.271 57.168C274.271 56.104 273.669 55.572 272.465 55.572H270.701V58.75H272.465ZM279.027 57.406C279.26 57.014 279.568 56.7107 279.951 56.496C280.343 56.272 280.805 56.16 281.337 56.16V57.812H280.931C280.306 57.812 279.83 57.9707 279.503 58.288C279.186 58.6053 279.027 59.156 279.027 59.94V64H277.431V56.286H279.027V57.406ZM286.15 64.126C285.422 64.126 284.764 63.9627 284.176 63.636C283.588 63.3 283.126 62.8333 282.79 62.236C282.454 61.6293 282.286 60.9293 282.286 60.136C282.286 59.352 282.459 58.6567 282.804 58.05C283.149 57.4433 283.621 56.9767 284.218 56.65C284.815 56.3233 285.483 56.16 286.22 56.16C286.957 56.16 287.625 56.3233 288.222 56.65C288.819 56.9767 289.291 57.4433 289.636 58.05C289.981 58.6567 290.154 59.352 290.154 60.136C290.154 60.92 289.977 61.6153 289.622 62.222C289.267 62.8287 288.782 63.3 288.166 63.636C287.559 63.9627 286.887 64.126 286.15 64.126ZM286.15 62.74C286.561 62.74 286.943 62.642 287.298 62.446C287.662 62.25 287.956 61.956 288.18 61.564C288.404 61.172 288.516 60.696 288.516 60.136C288.516 59.576 288.409 59.1047 288.194 58.722C287.979 58.33 287.695 58.036 287.34 57.84C286.985 57.644 286.603 57.546 286.192 57.546C285.781 57.546 285.399 57.644 285.044 57.84C284.699 58.036 284.423 58.33 284.218 58.722C284.013 59.1047 283.91 59.576 283.91 60.136C283.91 60.9667 284.12 61.6107 284.54 62.068C284.969 62.516 285.506 62.74 286.15 62.74ZM291.2 60.136C291.2 59.3427 291.358 58.6473 291.676 58.05C292.002 57.4433 292.45 56.9767 293.02 56.65C293.589 56.3233 294.242 56.16 294.98 56.16C295.913 56.16 296.683 56.384 297.29 56.832C297.906 57.2707 298.321 57.9007 298.536 58.722H296.814C296.674 58.3393 296.45 58.0407 296.142 57.826C295.834 57.6113 295.446 57.504 294.98 57.504C294.326 57.504 293.804 57.7373 293.412 58.204C293.029 58.6613 292.838 59.3053 292.838 60.136C292.838 60.9667 293.029 61.6153 293.412 62.082C293.804 62.5487 294.326 62.782 294.98 62.782C295.904 62.782 296.515 62.376 296.814 61.564H298.536C298.312 62.348 297.892 62.9733 297.276 63.44C296.66 63.8973 295.894 64.126 294.98 64.126C294.242 64.126 293.589 63.9627 293.02 63.636C292.45 63.3 292.002 62.8333 291.676 62.236C291.358 61.6293 291.2 60.9293 291.2 60.136ZM307.196 59.954C307.196 60.2433 307.178 60.5047 307.14 60.738H301.246C301.293 61.354 301.522 61.8487 301.932 62.222C302.343 62.5953 302.847 62.782 303.444 62.782C304.303 62.782 304.91 62.4227 305.264 61.704H306.986C306.753 62.4133 306.328 62.9967 305.712 63.454C305.106 63.902 304.35 64.126 303.444 64.126C302.707 64.126 302.044 63.9627 301.456 63.636C300.878 63.3 300.42 62.8333 300.084 62.236C299.758 61.6293 299.594 60.9293 299.594 60.136C299.594 59.3427 299.753 58.6473 300.07 58.05C300.397 57.4433 300.85 56.9767 301.428 56.65C302.016 56.3233 302.688 56.16 303.444 56.16C304.172 56.16 304.821 56.3187 305.39 56.636C305.96 56.9533 306.403 57.4013 306.72 57.98C307.038 58.5493 307.196 59.2073 307.196 59.954ZM305.53 59.45C305.521 58.862 305.311 58.3907 304.9 58.036C304.49 57.6813 303.981 57.504 303.374 57.504C302.824 57.504 302.352 57.6813 301.96 58.036C301.568 58.3813 301.335 58.8527 301.26 59.45H305.53ZM311.567 64.126C310.96 64.126 310.414 64.0187 309.929 63.804C309.453 63.58 309.075 63.2813 308.795 62.908C308.515 62.5253 308.365 62.1007 308.347 61.634H309.999C310.027 61.9607 310.181 62.236 310.461 62.46C310.75 62.6747 311.109 62.782 311.539 62.782C311.987 62.782 312.332 62.698 312.575 62.53C312.827 62.3527 312.953 62.1287 312.953 61.858C312.953 61.5687 312.813 61.354 312.533 61.214C312.262 61.074 311.828 60.92 311.231 60.752C310.652 60.5933 310.181 60.4393 309.817 60.29C309.453 60.1407 309.135 59.912 308.865 59.604C308.603 59.296 308.473 58.89 308.473 58.386C308.473 57.9753 308.594 57.602 308.837 57.266C309.079 56.9207 309.425 56.65 309.873 56.454C310.33 56.258 310.853 56.16 311.441 56.16C312.318 56.16 313.023 56.384 313.555 56.832C314.096 57.2707 314.385 57.8727 314.423 58.638H312.827C312.799 58.2927 312.659 58.0173 312.407 57.812C312.155 57.6067 311.814 57.504 311.385 57.504C310.965 57.504 310.643 57.5833 310.419 57.742C310.195 57.9007 310.083 58.1107 310.083 58.372C310.083 58.5773 310.157 58.75 310.307 58.89C310.456 59.03 310.638 59.142 310.853 59.226C311.067 59.3007 311.385 59.3987 311.805 59.52C312.365 59.6693 312.822 59.8233 313.177 59.982C313.541 60.1313 313.853 60.3553 314.115 60.654C314.376 60.9527 314.511 61.3493 314.521 61.844C314.521 62.2827 314.399 62.6747 314.157 63.02C313.914 63.3653 313.569 63.636 313.121 63.832C312.682 64.028 312.164 64.126 311.567 64.126ZM319.045 64.126C318.439 64.126 317.893 64.0187 317.407 63.804C316.931 63.58 316.553 63.2813 316.273 62.908C315.993 62.5253 315.844 62.1007 315.825 61.634H317.477C317.505 61.9607 317.659 62.236 317.939 62.46C318.229 62.6747 318.588 62.782 319.017 62.782C319.465 62.782 319.811 62.698 320.053 62.53C320.305 62.3527 320.431 62.1287 320.431 61.858C320.431 61.5687 320.291 61.354 320.011 61.214C319.741 61.074 319.307 60.92 318.709 60.752C318.131 60.5933 317.659 60.4393 317.295 60.29C316.931 60.1407 316.614 59.912 316.343 59.604C316.082 59.296 315.951 58.89 315.951 58.386C315.951 57.9753 316.073 57.602 316.315 57.266C316.558 56.9207 316.903 56.65 317.351 56.454C317.809 56.258 318.331 56.16 318.919 56.16C319.797 56.16 320.501 56.384 321.033 56.832C321.575 57.2707 321.864 57.8727 321.901 58.638H320.305C320.277 58.2927 320.137 58.0173 319.885 57.812C319.633 57.6067 319.293 57.504 318.863 57.504C318.443 57.504 318.121 57.5833 317.897 57.742C317.673 57.9007 317.561 58.1107 317.561 58.372C317.561 58.5773 317.636 58.75 317.785 58.89C317.935 59.03 318.117 59.142 318.331 59.226C318.546 59.3007 318.863 59.3987 319.283 59.52C319.843 59.6693 320.301 59.8233 320.655 59.982C321.019 60.1313 321.332 60.3553 321.593 60.654C321.855 60.9527 321.99 61.3493 321.999 61.844C321.999 62.2827 321.878 62.6747 321.635 63.02C321.393 63.3653 321.047 63.636 320.599 63.832C320.161 64.028 319.643 64.126 319.045 64.126ZM324.536 55.264C324.246 55.264 324.004 55.166 323.808 54.97C323.612 54.774 323.514 54.5313 323.514 54.242C323.514 53.9527 323.612 53.71 323.808 53.514C324.004 53.318 324.246 53.22 324.536 53.22C324.816 53.22 325.054 53.318 325.25 53.514C325.446 53.71 325.544 53.9527 325.544 54.242C325.544 54.5313 325.446 54.774 325.25 54.97C325.054 55.166 324.816 55.264 324.536 55.264ZM325.32 56.286V64H323.724V56.286H325.32ZM331.307 56.16C331.914 56.16 332.455 56.286 332.931 56.538C333.417 56.79 333.795 57.1633 334.065 57.658C334.336 58.1527 334.471 58.75 334.471 59.45V64H332.889V59.688C332.889 58.9973 332.717 58.47 332.371 58.106C332.026 57.7327 331.555 57.546 330.957 57.546C330.36 57.546 329.884 57.7327 329.529 58.106C329.184 58.47 329.011 58.9973 329.011 59.688V64H327.415V56.286H329.011V57.168C329.273 56.8507 329.604 56.6033 330.005 56.426C330.416 56.2487 330.85 56.16 331.307 56.16ZM339.615 56.16C340.212 56.16 340.74 56.2813 341.197 56.524C341.664 56.7573 342.028 57.0513 342.289 57.406V56.286H343.899V64.126C343.899 64.8353 343.75 65.4653 343.451 66.016C343.152 66.576 342.718 67.0147 342.149 67.332C341.589 67.6493 340.917 67.808 340.133 67.808C339.088 67.808 338.22 67.5607 337.529 67.066C336.838 66.5807 336.446 65.918 336.353 65.078H337.935C338.056 65.4793 338.313 65.8013 338.705 66.044C339.106 66.296 339.582 66.422 340.133 66.422C340.777 66.422 341.295 66.226 341.687 65.834C342.088 65.442 342.289 64.8727 342.289 64.126V62.838C342.018 63.202 341.65 63.51 341.183 63.762C340.726 64.0047 340.203 64.126 339.615 64.126C338.943 64.126 338.327 63.958 337.767 63.622C337.216 63.2767 336.778 62.8007 336.451 62.194C336.134 61.578 335.975 60.8827 335.975 60.108C335.975 59.3333 336.134 58.6473 336.451 58.05C336.778 57.4527 337.216 56.9907 337.767 56.664C338.327 56.328 338.943 56.16 339.615 56.16ZM342.289 60.136C342.289 59.604 342.177 59.142 341.953 58.75C341.738 58.358 341.454 58.0593 341.099 57.854C340.744 57.6487 340.362 57.546 339.951 57.546C339.54 57.546 339.158 57.6487 338.803 57.854C338.448 58.05 338.159 58.344 337.935 58.736C337.72 59.1187 337.613 59.576 337.613 60.108C337.613 60.64 337.72 61.1067 337.935 61.508C338.159 61.9093 338.448 62.2173 338.803 62.432C339.167 62.6373 339.55 62.74 339.951 62.74C340.362 62.74 340.744 62.6373 341.099 62.432C341.454 62.2267 341.738 61.928 341.953 61.536C342.177 61.1347 342.289 60.668 342.289 60.136Z" fill="#2C742F"/>
<path d="M524.504 64.098C523.599 64.098 522.773 63.888 522.026 63.468C521.279 63.0387 520.687 62.446 520.248 61.69C519.819 60.9247 519.604 60.066 519.604 59.114C519.604 58.162 519.819 57.308 520.248 56.552C520.687 55.7867 521.279 55.194 522.026 54.774C522.773 54.3447 523.599 54.13 524.504 54.13C525.419 54.13 526.249 54.3447 526.996 54.774C527.743 55.194 528.331 55.782 528.76 56.538C529.189 57.294 529.404 58.1527 529.404 59.114C529.404 60.0753 529.189 60.934 528.76 61.69C528.331 62.446 527.743 63.0387 526.996 63.468C526.249 63.888 525.419 64.098 524.504 64.098ZM524.504 62.992C525.185 62.992 525.797 62.8333 526.338 62.516C526.889 62.1987 527.318 61.746 527.626 61.158C527.943 60.57 528.102 59.8887 528.102 59.114C528.102 58.33 527.943 57.6487 527.626 57.07C527.318 56.482 526.893 56.0293 526.352 55.712C525.811 55.3947 525.195 55.236 524.504 55.236C523.813 55.236 523.197 55.3947 522.656 55.712C522.115 56.0293 521.685 56.482 521.368 57.07C521.06 57.6487 520.906 58.33 520.906 59.114C520.906 59.8887 521.06 60.57 521.368 61.158C521.685 61.746 522.115 62.1987 522.656 62.516C523.207 62.8333 523.823 62.992 524.504 62.992ZM534.824 56.188C535.757 56.188 536.513 56.4727 537.092 57.042C537.67 57.602 537.96 58.414 537.96 59.478V64H536.7V59.66C536.7 58.8947 536.508 58.3113 536.126 57.91C535.743 57.4993 535.22 57.294 534.558 57.294C533.886 57.294 533.349 57.504 532.948 57.924C532.556 58.344 532.36 58.9553 532.36 59.758V64H531.086V56.328H532.36V57.42C532.612 57.028 532.952 56.7247 533.382 56.51C533.82 56.2953 534.301 56.188 534.824 56.188ZM545.327 57.378V61.9C545.327 62.2733 545.407 62.5393 545.565 62.698C545.724 62.8473 545.999 62.922 546.391 62.922H547.329V64H546.181C545.472 64 544.94 63.8367 544.585 63.51C544.231 63.1833 544.053 62.6467 544.053 61.9V57.378H543.059V56.328H544.053V54.396H545.327V56.328H547.329V57.378H545.327ZM552.681 56.188C553.26 56.188 553.782 56.314 554.249 56.566C554.716 56.8087 555.08 57.1773 555.341 57.672C555.612 58.1667 555.747 58.7687 555.747 59.478V64H554.487V59.66C554.487 58.8947 554.296 58.3113 553.913 57.91C553.53 57.4993 553.008 57.294 552.345 57.294C551.673 57.294 551.136 57.504 550.735 57.924C550.343 58.344 550.147 58.9553 550.147 59.758V64H548.873V53.64H550.147V57.42C550.399 57.028 550.744 56.7247 551.183 56.51C551.631 56.2953 552.13 56.188 552.681 56.188ZM564.828 59.87C564.828 60.1127 564.814 60.3693 564.786 60.64H558.654C558.701 61.396 558.957 61.9887 559.424 62.418C559.9 62.838 560.474 63.048 561.146 63.048C561.697 63.048 562.154 62.922 562.518 62.67C562.891 62.4087 563.153 62.0633 563.302 61.634H564.674C564.469 62.3713 564.058 62.9733 563.442 63.44C562.826 63.8973 562.061 64.126 561.146 64.126C560.418 64.126 559.765 63.9627 559.186 63.636C558.617 63.3093 558.169 62.8473 557.842 62.25C557.515 61.6433 557.352 60.9433 557.352 60.15C557.352 59.3567 557.511 58.6613 557.828 58.064C558.145 57.4667 558.589 57.0093 559.158 56.692C559.737 56.3653 560.399 56.202 561.146 56.202C561.874 56.202 562.518 56.3607 563.078 56.678C563.638 56.9953 564.067 57.434 564.366 57.994C564.674 58.5447 564.828 59.17 564.828 59.87ZM563.512 59.604C563.512 59.1187 563.405 58.7033 563.19 58.358C562.975 58.0033 562.681 57.7373 562.308 57.56C561.944 57.3733 561.538 57.28 561.09 57.28C560.446 57.28 559.895 57.4853 559.438 57.896C558.99 58.3067 558.733 58.876 558.668 59.604H563.512ZM580.462 56.328L578.068 64H576.752L574.904 57.91L573.056 64H571.74L569.332 56.328H570.634L572.398 62.768L574.302 56.328H575.604L577.466 62.782L579.202 56.328H580.462ZM581.25 60.136C581.25 59.352 581.409 58.666 581.726 58.078C582.044 57.4807 582.478 57.0187 583.028 56.692C583.588 56.3653 584.209 56.202 584.89 56.202C585.562 56.202 586.146 56.3467 586.64 56.636C587.135 56.9253 587.504 57.2893 587.746 57.728V56.328H589.034V64H587.746V62.572C587.494 63.02 587.116 63.3933 586.612 63.692C586.118 63.9813 585.539 64.126 584.876 64.126C584.195 64.126 583.579 63.958 583.028 63.622C582.478 63.286 582.044 62.8147 581.726 62.208C581.409 61.6013 581.25 60.9107 581.25 60.136ZM587.746 60.15C587.746 59.5713 587.63 59.0673 587.396 58.638C587.163 58.2087 586.846 57.882 586.444 57.658C586.052 57.4247 585.618 57.308 585.142 57.308C584.666 57.308 584.232 57.42 583.84 57.644C583.448 57.868 583.136 58.1947 582.902 58.624C582.669 59.0533 582.552 59.5573 582.552 60.136C582.552 60.724 582.669 61.2373 582.902 61.676C583.136 62.1053 583.448 62.4367 583.84 62.67C584.232 62.894 584.666 63.006 585.142 63.006C585.618 63.006 586.052 62.894 586.444 62.67C586.846 62.4367 587.163 62.1053 587.396 61.676C587.63 61.2373 587.746 60.7287 587.746 60.15ZM597.795 56.328L593.175 67.612H591.859L593.371 63.916L590.277 56.328H591.691L594.099 62.544L596.479 56.328H597.795Z" fill="#333333"/>
<path d="M782.433 54.242C783.497 54.242 784.417 54.4427 785.191 54.844C785.975 55.236 786.573 55.8007 786.983 56.538C787.403 57.2753 787.613 58.1433 787.613 59.142C787.613 60.1407 787.403 61.0087 786.983 61.746C786.573 62.474 785.975 63.034 785.191 63.426C784.417 63.8087 783.497 64 782.433 64H779.395V54.242H782.433ZM782.433 62.95C783.693 62.95 784.655 62.6187 785.317 61.956C785.98 61.284 786.311 60.346 786.311 59.142C786.311 57.9287 785.975 56.9813 785.303 56.3C784.641 55.6187 783.684 55.278 782.433 55.278H780.669V62.95H782.433ZM796.294 59.87C796.294 60.1127 796.28 60.3693 796.252 60.64H790.12C790.166 61.396 790.423 61.9887 790.89 62.418C791.366 62.838 791.94 63.048 792.612 63.048C793.162 63.048 793.62 62.922 793.984 62.67C794.357 62.4087 794.618 62.0633 794.768 61.634H796.14C795.934 62.3713 795.524 62.9733 794.908 63.44C794.292 63.8973 793.526 64.126 792.612 64.126C791.884 64.126 791.23 63.9627 790.652 63.636C790.082 63.3093 789.634 62.8473 789.308 62.25C788.981 61.6433 788.818 60.9433 788.818 60.15C788.818 59.3567 788.976 58.6613 789.294 58.064C789.611 57.4667 790.054 57.0093 790.624 56.692C791.202 56.3653 791.865 56.202 792.612 56.202C793.34 56.202 793.984 56.3607 794.544 56.678C795.104 56.9953 795.533 57.434 795.832 57.994C796.14 58.5447 796.294 59.17 796.294 59.87ZM794.978 59.604C794.978 59.1187 794.87 58.7033 794.656 58.358C794.441 58.0033 794.147 57.7373 793.774 57.56C793.41 57.3733 793.004 57.28 792.556 57.28C791.912 57.28 791.361 57.4853 790.904 57.896C790.456 58.3067 790.199 58.876 790.134 59.604H794.978ZM799.249 53.64V64H797.975V53.64H799.249ZM802.079 55.082C801.836 55.082 801.631 54.998 801.463 54.83C801.295 54.662 801.211 54.4567 801.211 54.214C801.211 53.9713 801.295 53.766 801.463 53.598C801.631 53.43 801.836 53.346 802.079 53.346C802.312 53.346 802.508 53.43 802.667 53.598C802.835 53.766 802.919 53.9713 802.919 54.214C802.919 54.4567 802.835 54.662 802.667 54.83C802.508 54.998 802.312 55.082 802.079 55.082ZM802.695 56.328V64H801.421V56.328H802.695ZM807.722 62.824L810.102 56.328H811.46L808.45 64H806.966L803.956 56.328H805.328L807.722 62.824ZM819.714 59.87C819.714 60.1127 819.7 60.3693 819.672 60.64H813.54C813.586 61.396 813.843 61.9887 814.31 62.418C814.786 62.838 815.36 63.048 816.032 63.048C816.582 63.048 817.04 62.922 817.404 62.67C817.777 62.4087 818.038 62.0633 818.188 61.634H819.56C819.354 62.3713 818.944 62.9733 818.328 63.44C817.712 63.8973 816.946 64.126 816.032 64.126C815.304 64.126 814.65 63.9627 814.072 63.636C813.502 63.3093 813.054 62.8473 812.728 62.25C812.401 61.6433 812.238 60.9433 812.238 60.15C812.238 59.3567 812.396 58.6613 812.714 58.064C813.031 57.4667 813.474 57.0093 814.044 56.692C814.622 56.3653 815.285 56.202 816.032 56.202C816.76 56.202 817.404 56.3607 817.964 56.678C818.524 56.9953 818.953 57.434 819.252 57.994C819.56 58.5447 819.714 59.17 819.714 59.87ZM818.398 59.604C818.398 59.1187 818.29 58.7033 818.076 58.358C817.861 58.0033 817.567 57.7373 817.194 57.56C816.83 57.3733 816.424 57.28 815.976 57.28C815.332 57.28 814.781 57.4853 814.324 57.896C813.876 58.3067 813.619 58.876 813.554 59.604H818.398ZM822.669 57.574C822.893 57.1353 823.211 56.7947 823.621 56.552C824.041 56.3093 824.55 56.188 825.147 56.188V57.504H824.811C823.383 57.504 822.669 58.2787 822.669 59.828V64H821.395V56.328H822.669V57.574ZM833.618 59.87C833.618 60.1127 833.604 60.3693 833.576 60.64H827.444C827.491 61.396 827.747 61.9887 828.214 62.418C828.69 62.838 829.264 63.048 829.936 63.048C830.487 63.048 830.944 62.922 831.308 62.67C831.681 62.4087 831.943 62.0633 832.092 61.634H833.464C833.259 62.3713 832.848 62.9733 832.232 63.44C831.616 63.8973 830.851 64.126 829.936 64.126C829.208 64.126 828.555 63.9627 827.976 63.636C827.407 63.3093 826.959 62.8473 826.632 62.25C826.305 61.6433 826.142 60.9433 826.142 60.15C826.142 59.3567 826.301 58.6613 826.618 58.064C826.935 57.4667 827.379 57.0093 827.948 56.692C828.527 56.3653 829.189 56.202 829.936 56.202C830.664 56.202 831.308 56.3607 831.868 56.678C832.428 56.9953 832.857 57.434 833.156 57.994C833.464 58.5447 833.618 59.17 833.618 59.87ZM832.302 59.604C832.302 59.1187 832.195 58.7033 831.98 58.358C831.765 58.0033 831.471 57.7373 831.098 57.56C830.734 57.3733 830.328 57.28 829.88 57.28C829.236 57.28 828.685 57.4853 828.228 57.896C827.78 58.3067 827.523 58.876 827.458 59.604H832.302ZM834.824 60.136C834.824 59.352 834.982 58.666 835.3 58.078C835.617 57.4807 836.051 57.0187 836.602 56.692C837.162 56.3653 837.787 56.202 838.478 56.202C839.075 56.202 839.63 56.342 840.144 56.622C840.657 56.8927 841.049 57.252 841.32 57.7V53.64H842.608V64H841.32V62.558C841.068 63.0153 840.694 63.3933 840.2 63.692C839.705 63.9813 839.126 64.126 838.464 64.126C837.782 64.126 837.162 63.958 836.602 63.622C836.051 63.286 835.617 62.8147 835.3 62.208C834.982 61.6013 834.824 60.9107 834.824 60.136ZM841.32 60.15C841.32 59.5713 841.203 59.0673 840.97 58.638C840.736 58.2087 840.419 57.882 840.018 57.658C839.626 57.4247 839.192 57.308 838.716 57.308C838.24 57.308 837.806 57.42 837.414 57.644C837.022 57.868 836.709 58.1947 836.476 58.624C836.242 59.0533 836.126 59.5573 836.126 60.136C836.126 60.724 836.242 61.2373 836.476 61.676C836.709 62.1053 837.022 62.4367 837.414 62.67C837.806 62.894 838.24 63.006 838.716 63.006C839.192 63.006 839.626 62.894 840.018 62.67C840.419 62.4367 840.736 62.1053 840.97 61.676C841.203 61.2373 841.32 60.7287 841.32 60.15Z" fill="#333333"/>
<circle cx="52" cy="21" r="20" fill="#00B307"/>
<path d="M58.6668 16.8335L49.5002 26.0002L45.3335 21.8335" stroke="white" stroke-width="2" stroke-linecap="round" stroke-linejoin="round"/>
<circle cx="305.333" cy="21" r="20" fill="#00B307"/>
<path d="M297.649 20.764C297.649 19.1493 297.92 17.8893 298.461 16.984C299.012 16.0693 299.954 15.612 301.289 15.612C302.624 15.612 303.562 16.0693 304.103 16.984C304.654 17.8893 304.929 19.1493 304.929 20.764C304.929 22.3973 304.654 23.676 304.103 24.6C303.562 25.5147 302.624 25.972 301.289 25.972C299.954 25.972 299.012 25.5147 298.461 24.6C297.92 23.676 297.649 22.3973 297.649 20.764ZM303.361 20.764C303.361 20.008 303.31 19.3687 303.207 18.846C303.114 18.3233 302.918 17.8987 302.619 17.572C302.32 17.236 301.877 17.068 301.289 17.068C300.701 17.068 300.258 17.236 299.959 17.572C299.66 17.8987 299.46 18.3233 299.357 18.846C299.264 19.3687 299.217 20.008 299.217 20.764C299.217 21.548 299.264 22.206 299.357 22.738C299.45 23.27 299.646 23.6993 299.945 24.026C300.253 24.3527 300.701 24.516 301.289 24.516C301.877 24.516 302.32 24.3527 302.619 24.026C302.927 23.6993 303.128 23.27 303.221 22.738C303.314 22.206 303.361 21.548 303.361 20.764ZM307.5 23.83C308.396 23.0553 309.1 22.4207 309.614 21.926C310.136 21.422 310.57 20.8993 310.916 20.358C311.261 19.8167 311.434 19.2753 311.434 18.734C311.434 18.174 311.298 17.7353 311.028 17.418C310.766 17.1007 310.351 16.942 309.782 16.942C309.231 16.942 308.802 17.1193 308.494 17.474C308.195 17.8193 308.036 18.286 308.018 18.874H306.478C306.506 17.81 306.823 16.998 307.43 16.438C308.046 15.8687 308.825 15.584 309.768 15.584C310.785 15.584 311.578 15.864 312.148 16.424C312.726 16.984 313.016 17.7307 313.016 18.664C313.016 19.336 312.843 19.9847 312.498 20.61C312.162 21.226 311.756 21.7813 311.28 22.276C310.813 22.7613 310.216 23.326 309.488 23.97L308.858 24.53H313.296V25.86H306.492V24.698L307.5 23.83Z" fill="white"/>
<circle cx="558.667" cy="21" r="20" fill="white" stroke="#00B307" stroke-linecap="round" stroke-linejoin="round" stroke-dasharray="6 4"/>
<path d="M551.017 20.834C551.017 19.2287 551.279 17.978 551.801 17.082C552.324 16.1767 553.239 15.724 554.545 15.724C555.843 15.724 556.753 16.1767 557.275 17.082C557.798 17.978 558.059 19.2287 558.059 20.834C558.059 22.4673 557.798 23.7367 557.275 24.642C556.753 25.5473 555.843 26 554.545 26C553.239 26 552.324 25.5473 551.801 24.642C551.279 23.7367 551.017 22.4673 551.017 20.834ZM556.799 20.834C556.799 20.022 556.743 19.336 556.631 18.776C556.529 18.2067 556.309 17.7493 555.973 17.404C555.647 17.0587 555.171 16.886 554.545 16.886C553.911 16.886 553.425 17.0587 553.089 17.404C552.763 17.7493 552.543 18.2067 552.431 18.776C552.329 19.336 552.277 20.022 552.277 20.834C552.277 21.674 552.329 22.3787 552.431 22.948C552.543 23.5173 552.763 23.9747 553.089 24.32C553.425 24.6653 553.911 24.838 554.545 24.838C555.171 24.838 555.647 24.6653 555.973 24.32C556.309 23.9747 556.529 23.5173 556.631 22.948C556.743 22.3787 556.799 21.674 556.799 20.834ZM559.78 18.426C559.846 17.5673 560.177 16.8953 560.774 16.41C561.372 15.9247 562.146 15.682 563.098 15.682C563.733 15.682 564.279 15.7987 564.736 16.032C565.203 16.256 565.553 16.564 565.786 16.956C566.029 17.348 566.15 17.7913 566.15 18.286C566.15 18.8647 565.982 19.364 565.646 19.784C565.32 20.204 564.89 20.4747 564.358 20.596V20.666C564.965 20.8153 565.446 21.1093 565.8 21.548C566.155 21.9867 566.332 22.5607 566.332 23.27C566.332 23.802 566.211 24.2827 565.968 24.712C565.726 25.132 565.362 25.4633 564.876 25.706C564.391 25.9487 563.808 26.07 563.126 26.07C562.137 26.07 561.325 25.8133 560.69 25.3C560.056 24.7773 559.701 24.04 559.626 23.088H560.858C560.924 23.648 561.152 24.1053 561.544 24.46C561.936 24.8147 562.459 24.992 563.112 24.992C563.766 24.992 564.26 24.824 564.596 24.488C564.942 24.1427 565.114 23.6993 565.114 23.158C565.114 22.458 564.881 21.954 564.414 21.646C563.948 21.338 563.243 21.184 562.3 21.184H561.978V20.12H562.314C563.173 20.1107 563.822 19.9707 564.26 19.7C564.699 19.42 564.918 18.9907 564.918 18.412C564.918 17.9173 564.755 17.5207 564.428 17.222C564.111 16.9233 563.654 16.774 563.056 16.774C562.478 16.774 562.011 16.9233 561.656 17.222C561.302 17.5207 561.092 17.922 561.026 18.426H559.78Z" fill="#00B307"/>
<circle cx="812" cy="21" r="20" fill="white" stroke="#00B307" stroke-linecap="round" stroke-linejoin="round" stroke-dasharray="6 4"/>
<path d="M804.07 20.834C804.07 19.2287 804.331 17.978 804.854 17.082C805.377 16.1767 806.291 15.724 807.598 15.724C808.895 15.724 809.805 16.1767 810.328 17.082C810.851 17.978 811.112 19.2287 811.112 20.834C811.112 22.4673 810.851 23.7367 810.328 24.642C809.805 25.5473 808.895 26 807.598 26C806.291 26 805.377 25.5473 804.854 24.642C804.331 23.7367 804.07 22.4673 804.07 20.834ZM809.852 20.834C809.852 20.022 809.796 19.336 809.684 18.776C809.581 18.2067 809.362 17.7493 809.026 17.404C808.699 17.0587 808.223 16.886 807.598 16.886C806.963 16.886 806.478 17.0587 806.142 17.404C805.815 17.7493 805.596 18.2067 805.484 18.776C805.381 19.336 805.33 20.022 805.33 20.834C805.33 21.674 805.381 22.3787 805.484 22.948C805.596 23.5173 805.815 23.9747 806.142 24.32C806.478 24.6653 806.963 24.838 807.598 24.838C808.223 24.838 808.699 24.6653 809.026 24.32C809.362 23.9747 809.581 23.5173 809.684 22.948C809.796 22.3787 809.852 21.674 809.852 20.834ZM812.553 23.746V22.78L817.467 15.976H818.993V22.64H820.393V23.746H818.993V26H817.733V23.746H812.553ZM817.789 17.306L814.023 22.64H817.789V17.306Z" fill="#00B307"/>
</svg>
