<svg width="190" height="18" viewBox="0 0 190 18" fill="none" xmlns="http://www.w3.org/2000/svg">
<path d="M9.80993 13.4111L13.3565 15.6577C13.8099 15.9446 14.3724 15.5177 14.2379 14.9884L13.2136 10.9581C13.1847 10.8458 13.188 10.7276 13.2232 10.6172C13.2585 10.5067 13.3242 10.4085 13.4127 10.3337L16.5931 7.68712C17.0105 7.33949 16.7956 6.64593 16.2584 6.61105L12.1055 6.34105C11.9937 6.33312 11.8864 6.29359 11.7962 6.22707C11.706 6.16055 11.6365 6.06977 11.5959 5.9653L10.0467 2.06493C10.0046 1.95408 9.92969 1.85867 9.83204 1.79136C9.7344 1.72404 9.6186 1.68799 9.49999 1.68799C9.38139 1.68799 9.26559 1.72404 9.16795 1.79136C9.0703 1.85867 8.99543 1.95408 8.95324 2.06493L7.40412 5.9653C7.36357 6.06988 7.29413 6.16077 7.20391 6.2274C7.11368 6.29402 7.00637 6.33364 6.89449 6.34162L2.74156 6.61161C2.20493 6.64593 1.98893 7.33949 2.40687 7.68712L5.58724 10.3342C5.67573 10.409 5.74135 10.5072 5.77657 10.6175C5.81179 10.7278 5.81519 10.8459 5.78637 10.9581L4.83687 14.6959C4.67543 15.3309 5.35099 15.8434 5.89437 15.4986L9.19062 13.4111C9.28326 13.3522 9.39077 13.3209 9.50056 13.3209C9.61034 13.3209 9.71785 13.3522 9.81049 13.4111H9.80993Z" fill="#FF8A00"/>
<path d="M27.8099 13.4111L31.3565 15.6577C31.8099 15.9446 32.3724 15.5177 32.2379 14.9884L31.2136 10.9581C31.1847 10.8458 31.188 10.7276 31.2232 10.6172C31.2585 10.5067 31.3242 10.4085 31.4127 10.3337L34.5931 7.68711C35.0105 7.33949 34.7956 6.64593 34.2584 6.61105L30.1055 6.34105C29.9937 6.33312 29.8864 6.29359 29.7962 6.22707C29.706 6.16055 29.6365 6.06977 29.5959 5.9653L28.0467 2.06493C28.0046 1.95408 27.9297 1.85867 27.832 1.79136C27.7344 1.72404 27.6186 1.68799 27.5 1.68799C27.3814 1.68799 27.2656 1.72404 27.1679 1.79136C27.0703 1.85867 26.9954 1.95408 26.9532 2.06493L25.4041 5.9653C25.3636 6.06988 25.2941 6.16077 25.2039 6.2274C25.1137 6.29402 25.0064 6.33364 24.8945 6.34161L20.7416 6.61161C20.2049 6.64593 19.9889 7.33949 20.4069 7.68711L23.5872 10.3342C23.6757 10.409 23.7414 10.5072 23.7766 10.6175C23.8118 10.7278 23.8152 10.8459 23.7864 10.9581L22.8369 14.6959C22.6754 15.3309 23.351 15.8434 23.8944 15.4986L27.1906 13.4111C27.2833 13.3522 27.3908 13.3209 27.5006 13.3209C27.6103 13.3209 27.7178 13.3522 27.8105 13.4111H27.8099Z" fill="#FF8A00"/>
<path d="M45.8099 13.4111L49.3565 15.6577C49.8099 15.9446 50.3724 15.5177 50.2379 14.9884L49.2136 10.9581C49.1847 10.8458 49.188 10.7276 49.2232 10.6172C49.2585 10.5067 49.3242 10.4085 49.4127 10.3337L52.5931 7.68711C53.0105 7.33949 52.7956 6.64593 52.2584 6.61105L48.1055 6.34105C47.9937 6.33312 47.8864 6.29359 47.7962 6.22707C47.706 6.16055 47.6365 6.06977 47.5959 5.9653L46.0467 2.06493C46.0046 1.95408 45.9297 1.85867 45.832 1.79136C45.7344 1.72404 45.6186 1.68799 45.5 1.68799C45.3814 1.68799 45.2656 1.72404 45.1679 1.79136C45.0703 1.85867 44.9954 1.95408 44.9532 2.06493L43.4041 5.9653C43.3636 6.06988 43.2941 6.16077 43.2039 6.2274C43.1137 6.29402 43.0064 6.33364 42.8945 6.34161L38.7416 6.61161C38.2049 6.64593 37.9889 7.33949 38.4069 7.68711L41.5872 10.3342C41.6757 10.409 41.7414 10.5072 41.7766 10.6175C41.8118 10.7278 41.8152 10.8459 41.7864 10.9581L40.8369 14.6959C40.6754 15.3309 41.351 15.8434 41.8944 15.4986L45.1906 13.4111C45.2833 13.3522 45.3908 13.3209 45.5006 13.3209C45.6103 13.3209 45.7178 13.3522 45.8105 13.4111H45.8099Z" fill="#FF8A00"/>
<path d="M63.8099 13.4111L67.3565 15.6577C67.8099 15.9446 68.3724 15.5177 68.2379 14.9884L67.2136 10.9581C67.1847 10.8458 67.188 10.7276 67.2232 10.6172C67.2585 10.5067 67.3242 10.4085 67.4127 10.3337L70.5931 7.68711C71.0105 7.33949 70.7956 6.64593 70.2584 6.61105L66.1055 6.34105C65.9937 6.33312 65.8864 6.29359 65.7962 6.22707C65.706 6.16055 65.6365 6.06977 65.5959 5.9653L64.0467 2.06493C64.0046 1.95408 63.9297 1.85867 63.832 1.79136C63.7344 1.72404 63.6186 1.68799 63.5 1.68799C63.3814 1.68799 63.2656 1.72404 63.1679 1.79136C63.0703 1.85867 62.9954 1.95408 62.9532 2.06493L61.4041 5.9653C61.3636 6.06988 61.2941 6.16077 61.2039 6.2274C61.1137 6.29402 61.0064 6.33364 60.8945 6.34161L56.7416 6.61161C56.2049 6.64593 55.9889 7.33949 56.4069 7.68711L59.5872 10.3342C59.6757 10.409 59.7414 10.5072 59.7766 10.6175C59.8118 10.7278 59.8152 10.8459 59.7864 10.9581L58.8369 14.6959C58.6754 15.3309 59.351 15.8434 59.8944 15.4986L63.1906 13.4111C63.2833 13.3522 63.3908 13.3209 63.5006 13.3209C63.6103 13.3209 63.7178 13.3522 63.8105 13.4111H63.8099Z" fill="#FF8A00"/>
<path d="M81.8099 13.4111L85.3565 15.6577C85.8099 15.9446 86.3724 15.5177 86.2379 14.9884L85.2136 10.9581C85.1847 10.8458 85.188 10.7276 85.2232 10.6172C85.2585 10.5067 85.3242 10.4085 85.4127 10.3337L88.5931 7.68711C89.0105 7.33949 88.7956 6.64593 88.2584 6.61105L84.1055 6.34105C83.9937 6.33312 83.8864 6.29359 83.7962 6.22707C83.706 6.16055 83.6365 6.06977 83.5959 5.9653L82.0467 2.06493C82.0046 1.95408 81.9297 1.85867 81.832 1.79136C81.7344 1.72404 81.6186 1.68799 81.5 1.68799C81.3814 1.68799 81.2656 1.72404 81.1679 1.79136C81.0703 1.85867 80.9954 1.95408 80.9532 2.06493L79.4041 5.9653C79.3636 6.06988 79.2941 6.16077 79.2039 6.2274C79.1137 6.29402 79.0064 6.33364 78.8945 6.34161L74.7416 6.61161C74.2049 6.64593 73.9889 7.33949 74.4069 7.68711L77.5872 10.3342C77.6757 10.409 77.7414 10.5072 77.7766 10.6175C77.8118 10.7278 77.8152 10.8459 77.7864 10.9581L76.8369 14.6959C76.6754 15.3309 77.351 15.8434 77.8944 15.4986L81.1906 13.4111C81.2833 13.3522 81.3908 13.3209 81.5006 13.3209C81.6103 13.3209 81.7178 13.3522 81.8105 13.4111H81.8099Z" fill="#FF8A00"/>
<path d="M97.4312 15.232C96.6632 14.48 96.0632 13.524 95.6312 12.364C95.2072 11.204 94.9952 9.952 94.9952 8.608C94.9952 7.232 95.2192 5.948 95.6672 4.756C96.1232 3.556 96.7712 2.568 97.6112 1.792H98.7512V1.9C97.8552 2.74 97.1792 3.752 96.7232 4.936C96.2752 6.112 96.0512 7.336 96.0512 8.608C96.0512 9.848 96.2632 11.032 96.6872 12.16C97.1192 13.288 97.7472 14.276 98.5712 15.124V15.232H97.4312ZM105.424 5.272H101.212V8.008C101.396 7.752 101.668 7.544 102.028 7.384C102.388 7.216 102.776 7.132 103.192 7.132C103.856 7.132 104.396 7.272 104.812 7.552C105.228 7.824 105.524 8.18 105.7 8.62C105.884 9.052 105.976 9.512 105.976 10C105.976 10.576 105.868 11.092 105.652 11.548C105.436 12.004 105.104 12.364 104.656 12.628C104.216 12.892 103.668 13.024 103.012 13.024C102.172 13.024 101.492 12.808 100.972 12.376C100.452 11.944 100.136 11.368 100.024 10.648H101.092C101.196 11.104 101.416 11.46 101.752 11.716C102.088 11.972 102.512 12.1 103.024 12.1C103.656 12.1 104.132 11.912 104.452 11.536C104.772 11.152 104.932 10.648 104.932 10.024C104.932 9.4 104.772 8.92 104.452 8.584C104.132 8.24 103.66 8.068 103.036 8.068C102.612 8.068 102.24 8.172 101.92 8.38C101.608 8.58 101.38 8.856 101.236 9.208H100.204V4.312H105.424V5.272ZM107.296 12.124C108.312 11.308 109.108 10.64 109.684 10.12C110.26 9.592 110.744 9.044 111.136 8.476C111.536 7.9 111.736 7.336 111.736 6.784C111.736 6.264 111.608 5.856 111.352 5.56C111.104 5.256 110.7 5.104 110.14 5.104C109.596 5.104 109.172 5.276 108.868 5.62C108.572 5.956 108.412 6.408 108.388 6.976H107.332C107.364 6.08 107.636 5.388 108.148 4.9C108.66 4.412 109.32 4.168 110.128 4.168C110.952 4.168 111.604 4.396 112.084 4.852C112.572 5.308 112.816 5.936 112.816 6.736C112.816 7.4 112.616 8.048 112.216 8.68C111.824 9.304 111.376 9.856 110.872 10.336C110.368 10.808 109.724 11.36 108.94 11.992H113.068V12.904H107.296V12.124ZM114.066 11.068V10.24L118.278 4.408H119.586V10.12H120.786V11.068H119.586V13H118.506V11.068H114.066ZM118.554 5.548L115.326 10.12H118.554V5.548ZM129.984 4.636V5.524H126.348V8.344H129.3V9.232H126.348V13H125.256V4.636H129.984ZM137.303 9.46C137.303 9.668 137.291 9.888 137.267 10.12H132.011C132.051 10.768 132.271 11.276 132.671 11.644C133.079 12.004 133.571 12.184 134.147 12.184C134.619 12.184 135.011 12.076 135.323 11.86C135.643 11.636 135.867 11.34 135.995 10.972H137.171C136.995 11.604 136.643 12.12 136.115 12.52C135.587 12.912 134.931 13.108 134.147 13.108C133.523 13.108 132.963 12.968 132.467 12.688C131.979 12.408 131.595 12.012 131.315 11.5C131.035 10.98 130.895 10.38 130.895 9.7C130.895 9.02 131.031 8.424 131.303 7.912C131.575 7.4 131.955 7.008 132.443 6.736C132.939 6.456 133.507 6.316 134.147 6.316C134.771 6.316 135.323 6.452 135.803 6.724C136.283 6.996 136.651 7.372 136.907 7.852C137.171 8.324 137.303 8.86 137.303 9.46ZM136.175 9.232C136.175 8.816 136.083 8.46 135.899 8.164C135.715 7.86 135.463 7.632 135.143 7.48C134.831 7.32 134.483 7.24 134.099 7.24C133.547 7.24 133.075 7.416 132.683 7.768C132.299 8.12 132.079 8.608 132.023 9.232H136.175ZM144.744 9.46C144.744 9.668 144.732 9.888 144.708 10.12H139.452C139.492 10.768 139.712 11.276 140.112 11.644C140.52 12.004 141.012 12.184 141.588 12.184C142.06 12.184 142.452 12.076 142.764 11.86C143.084 11.636 143.308 11.34 143.436 10.972H144.612C144.436 11.604 144.084 12.12 143.556 12.52C143.028 12.912 142.372 13.108 141.588 13.108C140.964 13.108 140.404 12.968 139.908 12.688C139.42 12.408 139.036 12.012 138.756 11.5C138.476 10.98 138.336 10.38 138.336 9.7C138.336 9.02 138.472 8.424 138.744 7.912C139.016 7.4 139.396 7.008 139.884 6.736C140.38 6.456 140.948 6.316 141.588 6.316C142.212 6.316 142.764 6.452 143.244 6.724C143.724 6.996 144.092 7.372 144.348 7.852C144.612 8.324 144.744 8.86 144.744 9.46ZM143.616 9.232C143.616 8.816 143.524 8.46 143.34 8.164C143.156 7.86 142.904 7.632 142.584 7.48C142.272 7.32 141.924 7.24 141.54 7.24C140.988 7.24 140.516 7.416 140.124 7.768C139.74 8.12 139.52 8.608 139.464 9.232H143.616ZM145.778 9.688C145.778 9.016 145.914 8.428 146.186 7.924C146.458 7.412 146.83 7.016 147.302 6.736C147.782 6.456 148.318 6.316 148.91 6.316C149.422 6.316 149.898 6.436 150.338 6.676C150.778 6.908 151.114 7.216 151.346 7.6V4.12H152.45V13H151.346V11.764C151.13 12.156 150.81 12.48 150.386 12.736C149.962 12.984 149.466 13.108 148.898 13.108C148.314 13.108 147.782 12.964 147.302 12.676C146.83 12.388 146.458 11.984 146.186 11.464C145.914 10.944 145.778 10.352 145.778 9.688ZM151.346 9.7C151.346 9.204 151.246 8.772 151.046 8.404C150.846 8.036 150.574 7.756 150.23 7.564C149.894 7.364 149.522 7.264 149.114 7.264C148.706 7.264 148.334 7.36 147.998 7.552C147.662 7.744 147.394 8.024 147.194 8.392C146.994 8.76 146.894 9.192 146.894 9.688C146.894 10.192 146.994 10.632 147.194 11.008C147.394 11.376 147.662 11.66 147.998 11.86C148.334 12.052 148.706 12.148 149.114 12.148C149.522 12.148 149.894 12.052 150.23 11.86C150.574 11.66 150.846 11.376 151.046 11.008C151.246 10.632 151.346 10.196 151.346 9.7ZM155.387 7.648C155.611 7.256 155.939 6.936 156.371 6.688C156.803 6.44 157.295 6.316 157.847 6.316C158.439 6.316 158.971 6.456 159.443 6.736C159.915 7.016 160.287 7.412 160.559 7.924C160.831 8.428 160.967 9.016 160.967 9.688C160.967 10.352 160.831 10.944 160.559 11.464C160.287 11.984 159.911 12.388 159.431 12.676C158.959 12.964 158.431 13.108 157.847 13.108C157.279 13.108 156.779 12.984 156.347 12.736C155.923 12.488 155.603 12.172 155.387 11.788V13H154.295V4.12H155.387V7.648ZM159.851 9.688C159.851 9.192 159.751 8.76 159.551 8.392C159.351 8.024 159.079 7.744 158.735 7.552C158.399 7.36 158.027 7.264 157.619 7.264C157.219 7.264 156.847 7.364 156.503 7.564C156.167 7.756 155.895 8.04 155.687 8.416C155.487 8.784 155.387 9.212 155.387 9.7C155.387 10.196 155.487 10.632 155.687 11.008C155.895 11.376 156.167 11.66 156.503 11.86C156.847 12.052 157.219 12.148 157.619 12.148C158.027 12.148 158.399 12.052 158.735 11.86C159.079 11.66 159.351 11.376 159.551 11.008C159.751 10.632 159.851 10.192 159.851 9.688ZM161.996 9.688C161.996 9.016 162.132 8.428 162.404 7.924C162.676 7.412 163.048 7.016 163.52 6.736C164 6.456 164.532 6.316 165.116 6.316C165.692 6.316 166.192 6.44 166.616 6.688C167.04 6.936 167.356 7.248 167.564 7.624V6.424H168.668V13H167.564V11.776C167.348 12.16 167.024 12.48 166.592 12.736C166.168 12.984 165.672 13.108 165.104 13.108C164.52 13.108 163.992 12.964 163.52 12.676C163.048 12.388 162.676 11.984 162.404 11.464C162.132 10.944 161.996 10.352 161.996 9.688ZM167.564 9.7C167.564 9.204 167.464 8.772 167.264 8.404C167.064 8.036 166.792 7.756 166.448 7.564C166.112 7.364 165.74 7.264 165.332 7.264C164.924 7.264 164.552 7.36 164.216 7.552C163.88 7.744 163.612 8.024 163.412 8.392C163.212 8.76 163.112 9.192 163.112 9.688C163.112 10.192 163.212 10.632 163.412 11.008C163.612 11.376 163.88 11.66 164.216 11.86C164.552 12.052 164.924 12.148 165.332 12.148C165.74 12.148 166.112 12.052 166.448 11.86C166.792 11.66 167.064 11.376 167.264 11.008C167.464 10.632 167.564 10.196 167.564 9.7ZM170.106 9.7C170.106 9.02 170.242 8.428 170.514 7.924C170.786 7.412 171.162 7.016 171.642 6.736C172.13 6.456 172.686 6.316 173.31 6.316C174.118 6.316 174.782 6.512 175.302 6.904C175.83 7.296 176.178 7.84 176.346 8.536H175.17C175.058 8.136 174.838 7.82 174.51 7.588C174.19 7.356 173.79 7.24 173.31 7.24C172.686 7.24 172.182 7.456 171.798 7.888C171.414 8.312 171.222 8.916 171.222 9.7C171.222 10.492 171.414 11.104 171.798 11.536C172.182 11.968 172.686 12.184 173.31 12.184C173.79 12.184 174.19 12.072 174.51 11.848C174.83 11.624 175.05 11.304 175.17 10.888H176.346C176.17 11.56 175.818 12.1 175.29 12.508C174.762 12.908 174.102 13.108 173.31 13.108C172.686 13.108 172.13 12.968 171.642 12.688C171.162 12.408 170.786 12.012 170.514 11.5C170.242 10.988 170.106 10.388 170.106 9.7ZM181.475 13L178.895 10.096V13H177.803V4.12H178.895V9.34L181.427 6.424H182.951L179.855 9.7L182.963 13H181.475ZM183.631 15.232V15.124C184.455 14.276 185.079 13.288 185.503 12.16C185.935 11.032 186.151 9.848 186.151 8.608C186.151 7.336 185.923 6.112 185.467 4.936C185.019 3.752 184.347 2.74 183.451 1.9V1.792H184.591C185.431 2.568 186.075 3.556 186.523 4.756C186.979 5.948 187.207 7.232 187.207 8.608C187.207 9.952 186.991 11.204 186.559 12.364C186.135 13.524 185.539 14.48 184.771 15.232H183.631Z" fill="#808080"/>
</svg>
