<svg width="155" height="21" viewBox="0 0 155 21" fill="none" xmlns="http://www.w3.org/2000/svg">
<path d="M9.31008 14.9111L12.8566 17.1577C13.31 17.4446 13.8725 17.0177 13.7381 16.4884L12.7138 12.4581C12.6848 12.3458 12.6882 12.2276 12.7234 12.1172C12.7586 12.0067 12.8243 11.9085 12.9129 11.8337L16.0933 9.18712C16.5106 8.83949 16.2958 8.14593 15.7586 8.11105L11.6056 7.84105C11.4938 7.83312 11.3866 7.79359 11.2964 7.72707C11.2061 7.66055 11.1367 7.56977 11.096 7.4653L9.5469 3.56493C9.50472 3.45408 9.42984 3.35867 9.33219 3.29136C9.23455 3.22404 9.11875 3.18799 9.00015 3.18799C8.88155 3.18799 8.76575 3.22404 8.6681 3.29136C8.57046 3.35867 8.49558 3.45408 8.4534 3.56493L6.90427 7.4653C6.86372 7.56988 6.79429 7.66077 6.70406 7.7274C6.61383 7.79402 6.50652 7.83364 6.39465 7.84162L2.24171 8.11161C1.70508 8.14593 1.48908 8.83949 1.90702 9.18712L5.0874 11.8342C5.17588 11.909 5.2415 12.0072 5.27673 12.1175C5.31195 12.2278 5.31534 12.3459 5.28652 12.4581L4.33702 16.1959C4.17558 16.8309 4.85115 17.3434 5.39452 16.9986L8.69077 14.9111C8.78342 14.8522 8.89093 14.8209 9.00071 14.8209C9.11049 14.8209 9.218 14.8522 9.31065 14.9111H9.31008Z" fill="#FF8A00"/>
<path d="M27.3101 14.9111L30.8566 17.1577C31.31 17.4446 31.8725 17.0177 31.7381 16.4884L30.7138 12.4581C30.6848 12.3458 30.6882 12.2276 30.7234 12.1172C30.7586 12.0067 30.8243 11.9085 30.9129 11.8337L34.0933 9.18711C34.5106 8.83949 34.2958 8.14593 33.7586 8.11105L29.6056 7.84105C29.4938 7.83312 29.3866 7.79359 29.2964 7.72707C29.2061 7.66055 29.1367 7.56977 29.096 7.4653L27.5469 3.56493C27.5047 3.45408 27.4298 3.35867 27.3322 3.29136C27.2345 3.22404 27.1187 3.18799 27.0001 3.18799C26.8815 3.18799 26.7657 3.22404 26.6681 3.29136C26.5705 3.35867 26.4956 3.45408 26.4534 3.56493L24.9043 7.4653C24.8637 7.56988 24.7943 7.66077 24.7041 7.7274C24.6138 7.79402 24.5065 7.83364 24.3946 7.84161L20.2417 8.11161C19.7051 8.14593 19.4891 8.83949 19.907 9.18711L23.0874 11.8342C23.1759 11.909 23.2415 12.0072 23.2767 12.1175C23.3119 12.2278 23.3153 12.3459 23.2865 12.4581L22.337 16.1959C22.1756 16.8309 22.8511 17.3434 23.3945 16.9986L26.6908 14.9111C26.7834 14.8522 26.8909 14.8209 27.0007 14.8209C27.1105 14.8209 27.218 14.8522 27.3106 14.9111H27.3101Z" fill="#FF8A00"/>
<path d="M45.3101 14.9111L48.8566 17.1577C49.31 17.4446 49.8725 17.0177 49.7381 16.4884L48.7138 12.4581C48.6848 12.3458 48.6882 12.2276 48.7234 12.1172C48.7586 12.0067 48.8243 11.9085 48.9129 11.8337L52.0933 9.18711C52.5106 8.83949 52.2958 8.14593 51.7586 8.11105L47.6056 7.84105C47.4938 7.83312 47.3866 7.79359 47.2964 7.72707C47.2061 7.66055 47.1367 7.56977 47.096 7.4653L45.5469 3.56493C45.5047 3.45408 45.4298 3.35867 45.3322 3.29136C45.2345 3.22404 45.1187 3.18799 45.0001 3.18799C44.8815 3.18799 44.7657 3.22404 44.6681 3.29136C44.5705 3.35867 44.4956 3.45408 44.4534 3.56493L42.9043 7.4653C42.8637 7.56988 42.7943 7.66077 42.7041 7.7274C42.6138 7.79402 42.5065 7.83364 42.3946 7.84161L38.2417 8.11161C37.7051 8.14593 37.4891 8.83949 37.907 9.18711L41.0874 11.8342C41.1759 11.909 41.2415 12.0072 41.2767 12.1175C41.3119 12.2278 41.3153 12.3459 41.2865 12.4581L40.337 16.1959C40.1756 16.8309 40.8511 17.3434 41.3945 16.9986L44.6908 14.9111C44.7834 14.8522 44.8909 14.8209 45.0007 14.8209C45.1105 14.8209 45.218 14.8522 45.3106 14.9111H45.3101Z" fill="#FF8A00"/>
<path d="M63.3101 14.9111L66.8566 17.1577C67.31 17.4446 67.8725 17.0177 67.7381 16.4884L66.7138 12.4581C66.6848 12.3458 66.6882 12.2276 66.7234 12.1172C66.7586 12.0067 66.8243 11.9085 66.9129 11.8337L70.0933 9.18711C70.5106 8.83949 70.2958 8.14593 69.7586 8.11105L65.6056 7.84105C65.4938 7.83312 65.3866 7.79359 65.2964 7.72707C65.2061 7.66055 65.1367 7.56977 65.096 7.4653L63.5469 3.56493C63.5047 3.45408 63.4298 3.35867 63.3322 3.29136C63.2345 3.22404 63.1187 3.18799 63.0001 3.18799C62.8815 3.18799 62.7657 3.22404 62.6681 3.29136C62.5705 3.35867 62.4956 3.45408 62.4534 3.56493L60.9043 7.4653C60.8637 7.56988 60.7943 7.66077 60.7041 7.7274C60.6138 7.79402 60.5065 7.83364 60.3946 7.84161L56.2417 8.11161C55.7051 8.14593 55.4891 8.83949 55.907 9.18711L59.0874 11.8342C59.1759 11.909 59.2415 12.0072 59.2767 12.1175C59.3119 12.2278 59.3153 12.3459 59.2865 12.4581L58.337 16.1959C58.1756 16.8309 58.8511 17.3434 59.3945 16.9986L62.6908 14.9111C62.7834 14.8522 62.8909 14.8209 63.0007 14.8209C63.1105 14.8209 63.218 14.8522 63.3106 14.9111H63.3101Z" fill="#FF8A00"/>
<path d="M81.3101 14.9111L84.8566 17.1577C85.31 17.4446 85.8725 17.0177 85.7381 16.4884L84.7138 12.4581C84.6848 12.3458 84.6882 12.2276 84.7234 12.1172C84.7586 12.0067 84.8243 11.9085 84.9129 11.8337L88.0933 9.18711C88.5106 8.83949 88.2958 8.14593 87.7586 8.11105L83.6056 7.84105C83.4938 7.83312 83.3866 7.79359 83.2964 7.72707C83.2061 7.66055 83.1367 7.56977 83.096 7.4653L81.5469 3.56493C81.5047 3.45408 81.4298 3.35867 81.3322 3.29136C81.2345 3.22404 81.1187 3.18799 81.0001 3.18799C80.8815 3.18799 80.7657 3.22404 80.6681 3.29136C80.5705 3.35867 80.4956 3.45408 80.4534 3.56493L78.9043 7.4653C78.8637 7.56988 78.7943 7.66077 78.7041 7.7274C78.6138 7.79402 78.5065 7.83364 78.3946 7.84161L74.2417 8.11161C73.7051 8.14593 73.4891 8.83949 73.907 9.18711L77.0874 11.8342C77.1759 11.909 77.2415 12.0072 77.2767 12.1175C77.3119 12.2278 77.3153 12.3459 77.2865 12.4581L76.337 16.1959C76.1756 16.8309 76.8511 17.3434 77.3945 16.9986L80.6908 14.9111C80.7834 14.8522 80.8909 14.8209 81.0007 14.8209C81.1105 14.8209 81.218 14.8522 81.3106 14.9111H81.3101Z" fill="#FF8A00"/>
<path d="M94.2924 12.746V11.78L99.2064 4.976H100.732V11.64H102.132V12.746H100.732V15H99.4724V12.746H94.2924ZM99.5284 6.306L95.7624 11.64H99.5284V6.306ZM112.486 15L110.162 11.01H108.622V15H107.348V5.242H110.498C111.235 5.242 111.856 5.368 112.36 5.62C112.873 5.872 113.256 6.21267 113.508 6.642C113.76 7.07133 113.886 7.56133 113.886 8.112C113.886 8.784 113.69 9.37667 113.298 9.89C112.915 10.4033 112.336 10.744 111.562 10.912L114.012 15H112.486ZM108.622 9.988H110.498C111.188 9.988 111.706 9.82 112.052 9.484C112.397 9.13867 112.57 8.68133 112.57 8.112C112.57 7.53333 112.397 7.08533 112.052 6.768C111.716 6.45067 111.198 6.292 110.498 6.292H108.622V9.988ZM122.865 10.87C122.865 11.1127 122.851 11.3693 122.823 11.64H116.691C116.738 12.396 116.994 12.9887 117.461 13.418C117.937 13.838 118.511 14.048 119.183 14.048C119.734 14.048 120.191 13.922 120.555 13.67C120.928 13.4087 121.19 13.0633 121.339 12.634H122.711C122.506 13.3713 122.095 13.9733 121.479 14.44C120.863 14.8973 120.098 15.126 119.183 15.126C118.455 15.126 117.802 14.9627 117.223 14.636C116.654 14.3093 116.206 13.8473 115.879 13.25C115.552 12.6433 115.389 11.9433 115.389 11.15C115.389 10.3567 115.548 9.66133 115.865 9.064C116.182 8.46667 116.626 8.00933 117.195 7.692C117.774 7.36533 118.436 7.202 119.183 7.202C119.911 7.202 120.555 7.36067 121.115 7.678C121.675 7.99533 122.104 8.434 122.403 8.994C122.711 9.54467 122.865 10.17 122.865 10.87ZM121.549 10.604C121.549 10.1187 121.442 9.70333 121.227 9.358C121.012 9.00333 120.718 8.73733 120.345 8.56C119.981 8.37333 119.575 8.28 119.127 8.28C118.483 8.28 117.932 8.48533 117.475 8.896C117.027 9.30667 116.77 9.876 116.705 10.604H121.549ZM127.403 13.824L129.783 7.328H131.141L128.131 15H126.647L123.637 7.328H125.009L127.403 13.824ZM133.052 6.082C132.81 6.082 132.604 5.998 132.436 5.83C132.268 5.662 132.184 5.45667 132.184 5.214C132.184 4.97133 132.268 4.766 132.436 4.598C132.604 4.43 132.81 4.346 133.052 4.346C133.286 4.346 133.482 4.43 133.64 4.598C133.808 4.766 133.892 4.97133 133.892 5.214C133.892 5.45667 133.808 5.662 133.64 5.83C133.482 5.998 133.286 6.082 133.052 6.082ZM133.668 7.328V15H132.394V7.328H133.668ZM142.84 10.87C142.84 11.1127 142.826 11.3693 142.798 11.64H136.666C136.712 12.396 136.969 12.9887 137.436 13.418C137.912 13.838 138.486 14.048 139.158 14.048C139.708 14.048 140.166 13.922 140.53 13.67C140.903 13.4087 141.164 13.0633 141.314 12.634H142.686C142.48 13.3713 142.07 13.9733 141.454 14.44C140.838 14.8973 140.072 15.126 139.158 15.126C138.43 15.126 137.776 14.9627 137.198 14.636C136.628 14.3093 136.18 13.8473 135.854 13.25C135.527 12.6433 135.364 11.9433 135.364 11.15C135.364 10.3567 135.522 9.66133 135.84 9.064C136.157 8.46667 136.6 8.00933 137.17 7.692C137.748 7.36533 138.411 7.202 139.158 7.202C139.886 7.202 140.53 7.36067 141.09 7.678C141.65 7.99533 142.079 8.434 142.378 8.994C142.686 9.54467 142.84 10.17 142.84 10.87ZM141.524 10.604C141.524 10.1187 141.416 9.70333 141.202 9.358C140.987 9.00333 140.693 8.73733 140.32 8.56C139.956 8.37333 139.55 8.28 139.102 8.28C138.458 8.28 137.907 8.48533 137.45 8.896C137.002 9.30667 136.745 9.876 136.68 10.604H141.524ZM154.741 7.328L152.347 15H151.031L149.183 8.91L147.335 15H146.019L143.611 7.328H144.913L146.677 13.768L148.581 7.328H149.883L151.745 13.782L153.481 7.328H154.741Z" fill="#666666"/>
</svg>
